# xmcd
#
# Track frame offsets: 
#        150
#        14290
#        31420
#        42900
#        59423
#        75910
#        87303
#        104944
#        126433
#        144789
#        163486
#        178806
#
# Disc length: 2664 seconds
#
# Revision: 0
# Processed by: cddbd v1.5.2PL0 Copyright (c) Steve Scherf et al.
# Submitted via: ExactAudioCopy v0.90b4
#
DISCID=a40a660c
DTITLE=R R McKay - Between the river and the railroad tracks
DYEAR=2009
DGENRE=Country
TTITLE0=Little bit of salt
TTITLE1=How bad can a good girl get?
TTITLE2=Spend some
TTITLE3=Cuddles and conversations
TTITLE4=On the stove
TTITLE5=Between the river and the railroad tracks
TTITLE6=Neighbourhood
TTITLE7=The distance between us
TTITLE8=Bassline revelations
TTITLE9=End game
TTITLE10=My favourite dish
TTITLE11=That Van Morrison song
EXTD=
EXTT0=
EXTT1=
EXTT2=
EXTT3=
EXTT4=
EXTT5=
EXTT6=
EXTT7=
EXTT8=
EXTT9=
EXTT10=
EXTT11=
PLAYORDER=
